<svg width="1080" height="1080" viewBox="0 0 1080 1080" fill="none" xmlns="http://www.w3.org/2000/svg">
<path d="M879.183 905.556C881.991 899.201 891.009 899.201 893.817 905.556L929.599 986.516C931.937 991.805 928.064 997.75 922.282 997.75H850.718C844.936 997.75 841.063 991.805 843.401 986.516L879.183 905.556Z" fill="#152B59"/>
<path d="M381.991 448.686C389.851 430.423 411.027 421.989 429.29 429.848L451.335 439.335C469.598 447.194 478.032 468.371 470.173 486.634L259.813 975.466C251.954 993.729 230.778 1002.16 212.515 994.304L164.75 973.749C160.691 972.003 158.817 967.297 160.564 963.239L381.991 448.686Z" fill="#152B59"/>
<rect width="96" height="606.578" rx="36" transform="matrix(-0.918559 0.395284 0.395284 0.918559 682.912 413.41)" fill="#152B59"/>
<path d="M186.183 905.556C188.991 899.201 198.009 899.201 200.817 905.556L236.599 986.516C238.937 991.805 235.064 997.75 229.282 997.75H157.718C151.936 997.75 148.063 991.805 150.401 986.516L186.183 905.556Z" fill="#152B59"/>
<path d="M500 902H871V998H536C516.118 998 500 981.882 500 962V902Z" fill="#152B59"/>
<path d="M206 902H376.16C378.281 902 380 903.719 380 905.84V905.84C380 956.739 338.739 998 287.84 998H206V902Z" fill="#152B59"/>
<path d="M405.156 520.224C357.047 490.717 320.037 446.14 299.882 393.425C279.727 340.71 277.556 282.812 293.708 228.736C309.859 174.66 343.427 127.437 389.191 94.4105C434.956 61.3844 490.351 44.4066 546.762 46.1177C603.172 47.8288 657.437 68.1328 701.115 103.872C744.794 139.611 775.438 188.782 788.282 243.738C801.126 298.694 795.45 356.353 772.137 407.75C748.824 459.146 709.18 501.398 659.372 527.935L616.015 446.556C647.883 429.577 673.248 402.544 688.164 369.66C703.08 336.776 706.711 299.884 698.494 264.723C690.276 229.562 670.669 198.102 642.723 175.235C614.777 152.369 580.058 139.378 543.966 138.284C507.874 137.189 472.431 148.051 443.151 169.182C413.87 190.312 392.393 220.526 382.059 255.125C371.725 289.723 373.114 326.767 386.009 360.495C398.905 394.222 422.584 422.744 453.365 441.622L405.156 520.224Z" fill="#132956"/>
<path d="M668 302C668 372.692 610.692 430 540 430C469.308 430 412 372.692 412 302C412 231.308 469.308 174 540 174C610.692 174 668 231.308 668 302ZM484.249 302C484.249 332.79 509.21 357.751 540 357.751C570.79 357.751 595.751 332.79 595.751 302C595.751 271.21 570.79 246.249 540 246.249C509.21 246.249 484.249 271.21 484.249 302Z" fill="#CF9A2C"/>
<rect x="581" y="822" width="72" height="40" fill="#D19B2E"/>
<rect x="581" y="742" width="72" height="40" fill="#D19B2E"/>
<rect x="581" y="782" width="36" height="40" fill="#D19B2E"/>
<rect x="501" y="406" width="80" height="496" fill="#D09B2D"/>
</svg>
